<?xml version="1.0" encoding="utf-8"?>
<svg width="27px" height="27px" viewBox="0 0 27 27" version="1.1" xmlns:xlink="http://www.w3.org/1999/xlink" xmlns="http://www.w3.org/2000/svg">
  <defs>
    <path d="M0 0.00139252L27 0.00139252L27 27L0 27L0 0.00139252Z" id="path_1" />
    <clipPath id="mask_1">
      <use xlink:href="#path_1" />
    </clipPath>
  </defs>
  <g id="update">
    <path d="M0 0.00139252L27 0.00139252L27 27L0 27L0 0.00139252Z" id="Arrière-plan" fill="#FFFFFF" fill-opacity="0" fill-rule="evenodd" stroke="none" />
    <path d="M26.9947 4.38302C26.9965 3.89097 26.8006 3.41886 26.4511 3.0727L23.9122 0.541234C23.1879 -0.180411 22.0165 -0.180411 21.2921 0.541234L20.0882 1.74539C19.8982 1.51216 19.5642 1.24879 19.2943 1.53051C19.0244 1.81222 19.2773 2.13455 19.5105 2.32323L5.18907 16.6552C5.13321 16.7108 5.09455 16.7813 5.07771 16.8583L3.82662 22.6865C3.79792 22.8222 3.83976 22.9633 3.93784 23.0614C4.03593 23.1595 4.17694 23.2013 4.31265 23.1726L10.145 21.9161C10.222 21.9 10.2926 21.8617 10.348 21.806L24.6681 7.47793C24.8712 7.71509 25.1921 8.01384 25.4882 7.72033C25.7843 7.42683 25.4882 7.10318 25.2458 6.90009C25.8275 6.25411 27.0891 5.38146 26.9947 4.38302L26.9947 4.38302ZM20.0895 2.905L21.7926 4.60839L7.76725 18.6495L6.06419 16.9461L20.0895 2.905ZM4.75938 22.2397L5.72095 17.7598L9.23842 21.274L4.75938 22.2397ZM10.0585 20.9373L8.3463 19.2339L22.3782 5.19147L24.0891 6.89485L10.0585 20.9373ZM25.8747 5.11154L24.6668 6.31963L20.6673 2.32323C21.3681 1.72443 22.2878 0.144214 23.3345 1.11907L25.8734 3.65449C26.2727 4.05787 26.2732 4.70744 25.8747 5.11154L25.8747 5.11154ZM24.4035 9.27303C24.1775 9.27375 23.9948 9.45716 23.9948 9.68316L23.9948 26.1824L0.817467 26.1824L0.817467 8.45541L5.86245 8.45541C6.08818 8.45541 6.27118 8.27238 6.27118 8.0466L6.27118 3.00066L17.3135 3.00066C17.5306 2.98837 17.7004 2.80869 17.7004 2.59119C17.7004 2.37369 17.5306 2.19401 17.3135 2.18172L5.86245 2.18172C5.75414 2.18244 5.65034 2.22519 5.57293 2.30096L0.120524 7.75571C0.0433753 7.83285 2.20589e-05 7.93749 0 8.0466L0 26.5912C3.90423e-08 26.817 0.182997 27 0.408734 27L24.4035 27C24.5121 27.0003 24.6164 26.9574 24.6934 26.8807C24.7703 26.804 24.8135 26.6998 24.8135 26.5912L24.8135 9.68316C24.8135 9.45665 24.63 9.27303 24.4035 9.27303L24.4035 9.27303ZM5.45372 3.57981L5.45372 7.64172L1.39258 7.64172L5.45372 3.57981Z" id="Layer_2" fill="#1A171B" fill-rule="evenodd" stroke="none" />
  </g>
</svg>